<svg xmlns="http://www.w3.org/2000/svg" viewBox="0 0 279.81 102.15"><defs><style>.cls-1{fill:#f8b133;}.cls-1,.cls-2,.cls-6,.cls-7{stroke:#1d1d1b;stroke-miterlimit:10;}.cls-1,.cls-2{stroke-width:15px;}.cls-2{fill:#674795;}.cls-3{fill:#b18aff;}.cls-4{fill:#fff;}.cls-5{fill:#f5f5f5;}.cls-6{fill:#c6c6c5;}.cls-6,.cls-7{stroke-width:6px;}.cls-7{fill:#ed2672;}.cls-8{fill:#1d1d1b;}</style></defs><g id="Layer_2" data-name="Layer 2"><g id="Layer_1-2" data-name="Layer 1"><path class="cls-1" d="M31.68,75.49V9.87H66.06V56.74l-11.6-.83-.17-8.54h-7V75.49Zm24-39.32V26.29L45.09,23.4V36.17ZM54.8,75.49V59l11.26.9V75.49Z"/><path class="cls-2" d="M93.6,75.49,93.26,25.3,81.52,23.4l.17,33.34H69.18V9.87h34.38V75.49Zm-24.42,0V59.87H81.52l.34,15.62Z"/><path class="cls-1" d="M106.68,23.4V9.87h15.63V28.62Zm0,52.09V28.62l15.63,4.68V75.49Z"/><path class="cls-1" d="M125.43,75.49V9.87h28.13l6.25,6.25V52.05L138,56.74V73.29Zm23.3-34.73V27L138,23.4V43.48Z"/><path class="cls-1" d="M162.93,75.49V9.87l13.87,3.85L177,63l6.72.16.25-6.54L197.7,53l-.39,22.48Z"/><path class="cls-1" d="M221.86,91.57l6.33-8.93,28.49-4V75.49L237.93,69V9.87h13.42L250.71,58l7.86,2.46-.07-31.84h13.81V94.24Zm36.51-66.08V9.87h13.94V25.49Z"/><path class="cls-1" d="M199.45,75.49V9.87h34.37V56.74l-11.6-.83-.17-8.54h-7V75.49Zm24-39.32V26.29L212.86,23.4V36.17Zm-.85,39.32V59l11.26.9V75.49Z"/><path class="cls-3" d="M31.94,75.49V9.87H66.32V56.74l-11.6-.83-.17-8.54h-7V75.49Zm24-39.32V26.29L45.35,23.4V36.17Zm-.85,39.32V59l11.26.9V75.49Z"/><path class="cls-3" d="M93.86,75.49,93.52,25.3,81.78,23.4,82,56.74H69.44V9.87h34.38V75.49Zm-24.42,0V59.87H81.78l.34,15.62Z"/><path class="cls-3" d="M106.94,23.4V9.87h15.63V28.62Zm0,52.09V28.62l15.63,4.68V75.49Z"/><path class="cls-4" d="M125.69,75.49V9.87h28.13l6.25,6.25V52.05l-21.78,4.69V73.29ZM149,40.76V27l-10.7-3.64V43.48Z"/><path class="cls-4" d="M163.19,75.49V9.87l13.87,3.85L177.28,63l6.72.16.25-6.54L198,53l-.39,22.48Z"/><path class="cls-4" d="M222.12,91.57l6.33-8.93,28.49-4V75.49L238.19,69V9.87h13.42L251,58l7.86,2.46-.07-31.84h13.81V94.24Zm36.51-66.08V9.87h13.94V25.49Z"/><path class="cls-5" d="M199.71,75.49V9.87h34.37V56.74l-11.6-.83-.17-8.54h-7V75.49Zm24-39.32V26.29L213.12,23.4V36.17Zm-.85,39.32V59l11.26.9V75.49Z"/><polygon class="cls-6" points="116.52 75.93 7.24 75.93 23.07 91.76 112.43 91.76 116.52 75.93"/><polygon class="cls-7" points="171.3 73.4 160.14 94.29 111.12 94.29 117.2 73.4 171.3 73.4"/><path class="cls-8" d="M202.61,8.3S224.15,2,251.3,33.44c0,0-4.6-22.21-25.76-28.37Z"/><path class="cls-8" d="M112.65,73.42S89.4,79.94,60.09,47.37c0,0,5,23,27.8,29.39Z"/></g></g></svg>
